<svg width="138" height="88" viewBox="0 0 138 88" fill="none" xmlns="http://www.w3.org/2000/svg">
<circle cx="69" cy="30" r="28" fill="white"/>
<path d="M47 41.5V49.5L55 55.5L63 58V38.1726C63 36.7354 62.3202 35.4856 61 34.5C58.7564 32.8251 55 33.0002 55 33.0002C55 33.0002 51.5 33 49.5 34.5C47.5 36 47 37.5 47 41.5Z" fill="#E50000"/>
<path d="M91 41.505V49.505L83 55.505L75 58.005V38.1776C75 36.7404 75.6798 35.4906 77 34.505C79.2436 32.8301 83 33.0052 83 33.0052C83 33.0052 86.5 33.005 88.5 34.505C90.5 36.005 91 37.505 91 41.505Z" fill="#E50000"/>
<path d="M59 35.75L59 57.3966L69 59L79 57.3966L79 35.75C79 32.1333 77.317 30.8258 75.6667 29.6037C73.422 27.9414 69 28.0003 69 28.0003C69 28.0003 64.578 27.9414 62.3333 29.6037C60.683 30.8258 59 32.1333 59 35.75Z" fill="#E50000" stroke="white"/>
<path d="M69 0C85.5685 0 99 13.4315 99 30C99 46.5685 85.5685 60 69 60C52.4315 60 39 46.5685 39 30C39 13.4315 52.4315 0 69 0ZM69 2C53.536 2 41 14.536 41 30C41 45.464 53.536 58 69 58C84.464 58 97 45.464 97 30C97 14.536 84.464 2 69 2Z" fill="#E50000"/>
<circle cx="69" cy="20" r="7" fill="#E50000"/>
<path d="M60 26C60 29.0376 57.5376 31.5 54.5 31.5C51.4624 31.5 49 29.0376 49 26C49 22.9624 51.4624 20.5 54.5 20.5C57.5376 20.5 60 22.9624 60 26Z" fill="#E50000"/>
<path d="M88 26.5C88 29.5376 85.5376 32 82.5 32C79.4624 32 77 29.5376 77 26.5C77 23.4624 79.4624 21 82.5 21C85.5376 21 88 23.4624 88 26.5Z" fill="#E50000"/>
<path d="M10.2344 78.4785H12.1094C12.0117 79.377 11.7546 80.181 11.3379 80.8906C10.9212 81.6003 10.332 82.1634 9.57031 82.5801C8.80859 82.9902 7.85807 83.1953 6.71875 83.1953C5.88542 83.1953 5.12695 83.0391 4.44336 82.7266C3.76628 82.4141 3.18359 81.9714 2.69531 81.3984C2.20703 80.819 1.82943 80.1257 1.5625 79.3184C1.30208 78.5046 1.17188 77.5996 1.17188 76.6035V75.1875C1.17188 74.1914 1.30208 73.2897 1.5625 72.4824C1.82943 71.6686 2.21029 70.972 2.70508 70.3926C3.20638 69.8132 3.80859 69.3672 4.51172 69.0547C5.21484 68.7422 6.00586 68.5859 6.88477 68.5859C7.95898 68.5859 8.86719 68.7878 9.60938 69.1914C10.3516 69.5951 10.9277 70.1549 11.3379 70.8711C11.7546 71.5807 12.0117 72.4043 12.1094 73.3418H10.2344C10.1432 72.6777 9.97396 72.1081 9.72656 71.6328C9.47917 71.151 9.1276 70.7799 8.67188 70.5195C8.21615 70.2591 7.62044 70.1289 6.88477 70.1289C6.25326 70.1289 5.69661 70.2493 5.21484 70.4902C4.73958 70.7311 4.33919 71.0729 4.01367 71.5156C3.69466 71.9583 3.45378 72.4889 3.29102 73.1074C3.12826 73.7259 3.04688 74.4128 3.04688 75.168V76.6035C3.04688 77.3001 3.11849 77.9544 3.26172 78.5664C3.41146 79.1784 3.63607 79.7155 3.93555 80.1777C4.23503 80.64 4.61589 81.0046 5.07812 81.2715C5.54036 81.5319 6.08724 81.6621 6.71875 81.6621C7.51953 81.6621 8.15755 81.5352 8.63281 81.2812C9.10807 81.0273 9.46615 80.6628 9.70703 80.1875C9.95443 79.7122 10.1302 79.1426 10.2344 78.4785ZM19.6094 70.1973H21.9629C22.7832 70.1973 23.5417 70.3372 24.2383 70.6172C24.9414 70.8906 25.5534 71.2812 26.0742 71.7891C26.6016 72.2969 27.0117 72.9023 27.3047 73.6055C27.5977 74.3021 27.7441 75.0736 27.7441 75.9199C27.7441 76.7663 27.5977 77.541 27.3047 78.2441C27.0117 78.9473 26.6016 79.556 26.0742 80.0703C25.5534 80.5781 24.9414 80.972 24.2383 81.252C23.5417 81.5254 22.7832 81.6621 21.9629 81.6621H19.6094C18.7891 81.6621 18.0306 81.5254 17.334 81.252C16.6374 80.972 16.0254 80.5781 15.498 80.0703C14.9772 79.5625 14.5703 78.9603 14.2773 78.2637C13.9909 77.5605 13.8477 76.7858 13.8477 75.9395C13.8477 75.0931 13.9909 74.3216 14.2773 73.625C14.5703 72.9219 14.9772 72.3164 15.498 71.8086C16.0254 71.2943 16.6374 70.8971 17.334 70.6172C18.0306 70.3372 18.7891 70.1973 19.6094 70.1973ZM19.6094 71.6816C18.7565 71.6816 18.0339 71.8607 17.4414 72.2188C16.849 72.5703 16.3997 73.0651 16.0938 73.7031C15.7878 74.3411 15.6348 75.0866 15.6348 75.9395C15.6348 76.584 15.7194 77.1667 15.8887 77.6875C16.0645 78.2083 16.3216 78.6543 16.6602 79.0254C16.9987 79.3965 17.4154 79.6829 17.9102 79.8848C18.4049 80.0866 18.9714 80.1875 19.6094 80.1875H21.9824C22.8288 80.1875 23.5449 80.0117 24.1309 79.6602C24.7233 79.3021 25.1725 78.804 25.4785 78.166C25.791 77.5215 25.9473 76.7728 25.9473 75.9199C25.9473 75.2819 25.8594 74.7025 25.6836 74.1816C25.5078 73.6608 25.2507 73.2148 24.9121 72.8438C24.5801 72.4727 24.1667 72.1862 23.6719 71.9844C23.1836 71.7826 22.6204 71.6816 21.9824 71.6816H19.6094ZM21.6992 68.1953V83.5859H19.8926V68.1953H21.6992ZM39.1602 81.4668V83H31.6309V81.4668H39.1602ZM32.0117 68.7812V83H30.127V68.7812H32.0117ZM38.1641 74.8945V76.4277H31.6309V74.8945H38.1641ZM39.0625 68.7812V70.3242H31.6309V68.7812H39.0625ZM46.7383 77.4238H42.9395V75.8906H46.7383C47.474 75.8906 48.0697 75.7734 48.5254 75.5391C48.9811 75.3047 49.3132 74.9792 49.5215 74.5625C49.7363 74.1458 49.8438 73.6706 49.8438 73.1367C49.8438 72.6484 49.7363 72.1895 49.5215 71.7598C49.3132 71.3301 48.9811 70.985 48.5254 70.7246C48.0697 70.4577 47.474 70.3242 46.7383 70.3242H43.3789V83H41.4941V68.7812H46.7383C47.8125 68.7812 48.7207 68.9668 49.4629 69.3379C50.2051 69.709 50.7682 70.2233 51.1523 70.8809C51.5365 71.5319 51.7285 72.2773 51.7285 73.1172C51.7285 74.0286 51.5365 74.8066 51.1523 75.4512C50.7682 76.0957 50.2051 76.5872 49.4629 76.9258C48.7207 77.2578 47.8125 77.4238 46.7383 77.4238ZM58.0273 70.041L53.3203 83H51.3965L56.8164 68.7812H58.0566L58.0273 70.041ZM61.9727 83L57.2559 70.041L57.2266 68.7812H58.4668L63.9062 83H61.9727ZM61.7285 77.7363V79.2793H53.7402V77.7363H61.7285ZM69.2969 76.2129V77.6973H64.5312V76.2129H69.2969ZM79.9219 78.4785H81.7969C81.6992 79.377 81.4421 80.181 81.0254 80.8906C80.6087 81.6003 80.0195 82.1634 79.2578 82.5801C78.4961 82.9902 77.5456 83.1953 76.4062 83.1953C75.5729 83.1953 74.8145 83.0391 74.1309 82.7266C73.4538 82.4141 72.8711 81.9714 72.3828 81.3984C71.8945 80.819 71.5169 80.1257 71.25 79.3184C70.9896 78.5046 70.8594 77.5996 70.8594 76.6035V75.1875C70.8594 74.1914 70.9896 73.2897 71.25 72.4824C71.5169 71.6686 71.8978 70.972 72.3926 70.3926C72.8939 69.8132 73.4961 69.3672 74.1992 69.0547C74.9023 68.7422 75.6934 68.5859 76.5723 68.5859C77.6465 68.5859 78.5547 68.7878 79.2969 69.1914C80.0391 69.5951 80.6152 70.1549 81.0254 70.8711C81.4421 71.5807 81.6992 72.4043 81.7969 73.3418H79.9219C79.8307 72.6777 79.6615 72.1081 79.4141 71.6328C79.1667 71.151 78.8151 70.7799 78.3594 70.5195C77.9036 70.2591 77.3079 70.1289 76.5723 70.1289C75.9408 70.1289 75.3841 70.2493 74.9023 70.4902C74.4271 70.7311 74.0267 71.0729 73.7012 71.5156C73.3822 71.9583 73.1413 72.4889 72.9785 73.1074C72.8158 73.7259 72.7344 74.4128 72.7344 75.168V76.6035C72.7344 77.3001 72.806 77.9544 72.9492 78.5664C73.099 79.1784 73.3236 79.7155 73.623 80.1777C73.9225 80.64 74.3034 81.0046 74.7656 81.2715C75.2279 81.5319 75.7747 81.6621 76.4062 81.6621C77.207 81.6621 77.8451 81.5352 78.3203 81.2812C78.7956 81.0273 79.1536 80.6628 79.3945 80.1875C79.6419 79.7122 79.8177 79.1426 79.9219 78.4785ZM89.3262 68.7812V83H87.4707V68.7812H89.3262ZM93.8965 68.7812V70.3242H82.9102V68.7812H93.8965ZM100.488 70.041L95.7812 83H93.8574L99.2773 68.7812H100.518L100.488 70.041ZM104.434 83L99.7168 70.041L99.6875 68.7812H100.928L106.367 83H104.434ZM104.189 77.7363V79.2793H96.2012V77.7363H104.189ZM113.203 70.1973H115.557C116.377 70.1973 117.135 70.3372 117.832 70.6172C118.535 70.8906 119.147 71.2812 119.668 71.7891C120.195 72.2969 120.605 72.9023 120.898 73.6055C121.191 74.3021 121.338 75.0736 121.338 75.9199C121.338 76.7663 121.191 77.541 120.898 78.2441C120.605 78.9473 120.195 79.556 119.668 80.0703C119.147 80.5781 118.535 80.972 117.832 81.252C117.135 81.5254 116.377 81.6621 115.557 81.6621H113.203C112.383 81.6621 111.624 81.5254 110.928 81.252C110.231 80.972 109.619 80.5781 109.092 80.0703C108.571 79.5625 108.164 78.9603 107.871 78.2637C107.585 77.5605 107.441 76.7858 107.441 75.9395C107.441 75.0931 107.585 74.3216 107.871 73.625C108.164 72.9219 108.571 72.3164 109.092 71.8086C109.619 71.2943 110.231 70.8971 110.928 70.6172C111.624 70.3372 112.383 70.1973 113.203 70.1973ZM113.203 71.6816C112.35 71.6816 111.628 71.8607 111.035 72.2188C110.443 72.5703 109.993 73.0651 109.688 73.7031C109.382 74.3411 109.229 75.0866 109.229 75.9395C109.229 76.584 109.313 77.1667 109.482 77.6875C109.658 78.2083 109.915 78.6543 110.254 79.0254C110.592 79.3965 111.009 79.6829 111.504 79.8848C111.999 80.0866 112.565 80.1875 113.203 80.1875H115.576C116.423 80.1875 117.139 80.0117 117.725 79.6602C118.317 79.3021 118.766 78.804 119.072 78.166C119.385 77.5215 119.541 76.7728 119.541 75.9199C119.541 75.2819 119.453 74.7025 119.277 74.1816C119.102 73.6608 118.844 73.2148 118.506 72.8438C118.174 72.4727 117.76 72.1862 117.266 71.9844C116.777 71.7826 116.214 71.6816 115.576 71.6816H113.203ZM115.293 68.1953V83.5859H113.486V68.1953H115.293ZM128.652 70.1973H131.006C131.826 70.1973 132.585 70.3372 133.281 70.6172C133.984 70.8906 134.596 71.2812 135.117 71.7891C135.645 72.2969 136.055 72.9023 136.348 73.6055C136.641 74.3021 136.787 75.0736 136.787 75.9199C136.787 76.7663 136.641 77.541 136.348 78.2441C136.055 78.9473 135.645 79.556 135.117 80.0703C134.596 80.5781 133.984 80.972 133.281 81.252C132.585 81.5254 131.826 81.6621 131.006 81.6621H128.652C127.832 81.6621 127.074 81.5254 126.377 81.252C125.68 80.972 125.068 80.5781 124.541 80.0703C124.02 79.5625 123.613 78.9603 123.32 78.2637C123.034 77.5605 122.891 76.7858 122.891 75.9395C122.891 75.0931 123.034 74.3216 123.32 73.625C123.613 72.9219 124.02 72.3164 124.541 71.8086C125.068 71.2943 125.68 70.8971 126.377 70.6172C127.074 70.3372 127.832 70.1973 128.652 70.1973ZM128.652 71.6816C127.799 71.6816 127.077 71.8607 126.484 72.2188C125.892 72.5703 125.443 73.0651 125.137 73.7031C124.831 74.3411 124.678 75.0866 124.678 75.9395C124.678 76.584 124.762 77.1667 124.932 77.6875C125.107 78.2083 125.365 78.6543 125.703 79.0254C126.042 79.3965 126.458 79.6829 126.953 79.8848C127.448 80.0866 128.014 80.1875 128.652 80.1875H131.025C131.872 80.1875 132.588 80.0117 133.174 79.6602C133.766 79.3021 134.215 78.804 134.521 78.166C134.834 77.5215 134.99 76.7728 134.99 75.9199C134.99 75.2819 134.902 74.7025 134.727 74.1816C134.551 73.6608 134.294 73.2148 133.955 72.8438C133.623 72.4727 133.21 72.1862 132.715 71.9844C132.227 71.7826 131.663 71.6816 131.025 71.6816H128.652ZM130.742 68.1953V83.5859H128.936V68.1953H130.742Z" fill="white"/>
</svg>
